<svg width="38" height="38" viewBox="0 0 38 38" fill="none" xmlns="http://www.w3.org/2000/svg">
<g clip-path="url(#clip0_1_157)">
<path fill-rule="evenodd" clip-rule="evenodd" d="M19.1275 4.80569C19.1275 3.0271 16.9799 2.13331 15.718 3.38675L2.85691 16.1621C1.28219 17.7264 1.28218 20.2736 2.85691 21.8379L15.718 34.6132C16.9799 35.8667 19.1275 34.9729 19.1275 33.1943V28.8647C19.1275 25.3075 23.4227 23.5199 25.9464 26.0268L29.4763 29.5331C32.6309 32.6667 38 30.4323 38 25.9858V12.0142C38 7.56775 32.6309 5.33329 29.4763 8.46688L25.9464 11.9732C23.4228 14.4801 19.1275 12.6925 19.1275 9.13536V4.80569Z" fill="white"/>
</g>
<defs>
<clipPath id="clip0_1_157">
<rect width="38" height="38" fill="white" transform="matrix(0 -1 1 0 0 38)"/>
</clipPath>
</defs>
</svg>
